<?xml version="1.0" encoding="utf-8"?>
<svg xmlns="http://www.w3.org/2000/svg" viewBox="142.074 153.339 96.858 117.143" xmlns:bx="https://boxy-svg.com" width="96.858px" height="117.143px"><defs><filter id="gaussian-blur-filter-0" bx:preset="gaussian-blur 1 5" color-interpolation-filters="sRGB" x="-50%" y="-50%" width="200%" height="200%"><feGaussianBlur stdDeviation="5 5" edgeMode="none"/></filter><bx:export><bx:file format="svg"/></bx:export></defs><path d="M 142.035 177.443 L 166.868 153.305 L 228.221 153.305 C 234.117 153.305 238.896 158.084 238.896 163.98 L 238.896 259.719 C 238.896 265.615 234.117 270.394 228.221 270.394 L 152.71 270.394 C 146.814 270.394 142.035 265.615 142.035 259.719 L 142.035 177.443 Z" style="fill: rgb(48, 51, 69);"/><path d="M 170.76 153.424 L 172.808 153.37 L 172.848 184.871 L 142.045 184.886 L 142.076 181.975 L 170.76 153.424 Z" style="fill: rgba(0, 0, 0, 0.267); filter: url(&quot;#gaussian-blur-filter-0&quot;);"/><path d="M 166.937 152.986 L 167.023 177.709 L 141.945 177.502 L 166.937 152.986 Z" style="fill: rgb(216, 216, 216); stroke-width: 1;"/><rect x="170.207" y="195.128" width="31.723" height="31.452" style="fill: rgb(216, 216, 216);"/><ellipse style="fill: rgb(216, 216, 216); stroke: rgb(48, 51, 69); stroke-width: 5px; transform-box: fill-box; transform-origin: 36.2598% 39.3132%;" cx="200.981" cy="223.732" rx="17.76" ry="17.76"/></svg>